<svg width="230" height="91" viewBox="0 0 230 91" fill="none" xmlns="http://www.w3.org/2000/svg">
<path d="M103.071 27.4609C102.127 27.4609 101.332 27.1876 100.686 26.6408C100.089 26.0444 99.7911 25.2989 99.7911 24.4043C99.7911 23.112 100.338 21.9937 101.431 21.0494C102.525 20.0553 103.718 19.5583 105.01 19.5583C105.954 19.5583 106.725 19.8565 107.321 20.4529C107.967 20.9997 108.29 21.7203 108.29 22.615C108.29 23.9072 107.743 25.0504 106.65 26.0444C105.557 26.9888 104.364 27.4609 103.071 27.4609ZM93.5287 71.4473C92.4849 71.4473 91.64 71.1491 90.9939 70.5527C90.3477 69.9563 90.0247 69.1362 90.0247 68.0924C90.0247 67.6451 90.0992 67.1729 90.2483 66.6759L96.2871 42.2225C96.3368 42.0734 96.3617 41.8746 96.3617 41.626C96.3617 41.1787 96.2126 40.8308 95.9144 40.5823C95.6659 40.3338 95.3179 40.2095 94.8706 40.2095C93.1311 40.2095 90.8696 41.129 88.0863 42.968C90.1241 40.6817 92.1619 38.8676 94.1996 37.5256C96.2374 36.1837 98.0516 35.5127 99.642 35.5127C100.686 35.5127 101.531 35.8109 102.177 36.4073C102.823 37.0037 103.146 37.8238 103.146 38.8676C103.146 39.2652 103.071 39.7374 102.922 40.2841L96.809 64.7375C96.7096 65.0357 96.6599 65.3091 96.6599 65.5576C96.6599 66.3529 97.2066 66.7505 98.3001 66.7505C100.04 66.7505 102.301 65.831 105.084 63.992C103.047 66.2783 101.009 68.0924 98.9711 69.4344C96.9333 70.7763 95.1191 71.4473 93.5287 71.4473ZM138.565 64.7375C138.466 65.0357 138.416 65.3091 138.416 65.5576C138.416 66.3529 138.963 66.7505 140.056 66.7505C141.796 66.7505 144.057 65.831 146.841 63.992C144.803 66.2783 142.765 68.0924 140.727 69.4344C138.689 70.7763 136.875 71.4473 135.285 71.4473C134.191 71.4473 133.346 71.1491 132.75 70.5527C132.154 69.9563 131.855 69.1362 131.855 68.0924C131.855 67.496 131.905 67.0238 132.005 66.6759L132.75 63.7683C129.122 69.0865 125.22 71.7455 121.045 71.7455C118.958 71.7455 117.094 71.0994 115.454 69.8071C113.814 68.4652 112.273 66.5517 110.831 64.0666C110.334 61.5814 110.086 59.32 110.086 57.2822C110.086 52.9581 110.831 49.1311 112.322 45.801C113.863 42.4213 115.851 39.8119 118.287 37.9729C120.722 36.134 123.257 35.2145 125.891 35.2145C127.929 35.2145 129.793 35.786 131.483 36.9292C133.222 38.0226 134.639 39.5634 135.732 41.5515C133.844 40.6071 131.93 40.135 129.992 40.135C127.506 40.135 125.22 40.9054 123.133 42.4461C121.045 43.9869 119.38 46.1738 118.138 49.0068C116.945 51.8398 116.348 55.1202 116.348 58.8478C116.348 60.6868 116.497 62.6252 116.796 64.663C117.591 65.4085 118.312 65.9552 118.958 66.3031C119.604 66.6511 120.399 66.825 121.343 66.825C123.878 66.825 126.338 65.6322 128.724 63.2465C131.11 60.8608 133.322 57.5059 135.359 53.1818L143.337 21.3476C143.436 21.0494 143.486 20.776 143.486 20.5275C143.486 19.7323 142.939 19.3346 141.846 19.3346C140.106 19.3346 137.845 20.2541 135.061 22.0931C137.099 19.8068 139.137 17.9927 141.175 16.6507C143.212 15.3088 145.026 14.6378 146.617 14.6378C147.661 14.6378 148.506 14.936 149.152 15.5324C149.798 16.1288 150.121 16.9489 150.121 17.9927C150.121 18.3903 150.046 18.8625 149.897 19.4092L138.565 64.7375ZM181.92 66.7505C183.659 66.7505 185.921 65.831 188.704 63.992C186.666 66.2783 184.628 68.0924 182.591 69.4344C180.553 70.7763 178.739 71.4473 177.148 71.4473C176.055 71.4473 175.21 71.1491 174.613 70.5527C174.017 69.9563 173.719 69.1362 173.719 68.0924C173.719 67.496 173.768 67.0238 173.868 66.6759L174.613 63.7683C170.985 69.0865 167.084 71.7455 162.909 71.7455C160.821 71.7455 158.957 71.0994 157.317 69.8071C155.677 68.4652 154.136 66.5517 152.695 64.0666C152.198 61.5814 151.949 59.32 151.949 57.2822C151.949 52.8587 152.794 48.982 154.484 45.6519C156.174 42.3219 158.56 39.7622 161.641 37.9729C164.723 36.134 168.301 35.2145 172.377 35.2145C176.055 35.2145 179.31 35.96 182.143 37.4511C184.976 38.8924 187.138 40.8805 188.629 43.4153C186.641 42.3716 184.504 41.5763 182.218 41.0296C179.981 40.4332 177.72 40.135 175.434 40.135C170.016 40.135 165.791 41.8 162.759 45.13C159.728 48.4601 158.212 53.0327 158.212 58.8478C158.212 60.6868 158.361 62.6252 158.659 64.663C159.454 65.4085 160.175 65.9552 160.821 66.3031C161.467 66.6511 162.262 66.825 163.207 66.825C165.742 66.825 168.202 65.6322 170.588 63.2465C172.973 60.8608 175.185 57.5059 177.223 53.1818L178.639 47.5903C179.087 45.6519 180.329 44.6827 182.367 44.6827C184.007 44.6827 184.827 45.3288 184.827 46.6211C184.827 46.7702 184.778 47.0933 184.678 47.5903L180.429 64.7375C180.329 65.0357 180.279 65.3091 180.279 65.5576C180.279 66.3529 180.826 66.7505 181.92 66.7505ZM207.829 71.7455C204.896 71.7455 202.212 70.9254 199.777 69.2853C197.341 67.6451 195.577 65.5576 194.484 63.0228C193.987 61.3329 193.738 59.4691 193.738 57.4313C193.738 52.9581 194.608 49.0565 196.347 45.7265C198.087 42.3467 200.547 39.7622 203.728 37.9729C206.959 36.134 210.711 35.2145 214.986 35.2145C217.57 35.2145 219.931 35.7612 222.068 36.8546C224.255 37.8984 225.895 39.3397 226.989 41.1787C227.585 43.0674 227.883 45.304 227.883 47.8885C227.883 51.318 226.79 54.0516 224.603 56.0894C222.416 58.1271 219.459 59.146 215.731 59.146C212.65 59.146 209.991 58.5248 207.754 57.2822C205.567 55.99 204.126 54.2752 203.43 52.138C204.474 52.8836 205.965 53.48 207.903 53.9273C209.842 54.3249 211.954 54.5237 214.24 54.5237C216.576 54.5237 218.44 53.8776 219.832 52.5854C221.223 51.2434 221.919 49.479 221.919 47.2921C221.919 45.7513 221.72 44.2603 221.323 42.8189C220.528 42.0237 219.558 41.3775 218.415 40.8805C217.322 40.3835 216.203 40.135 215.06 40.135C210.438 40.135 206.76 41.8497 204.026 45.2791C201.342 48.7086 200.001 53.3557 200.001 59.2206C200.001 60.8608 200.125 62.4761 200.373 64.0666C202.51 65.9055 205.443 66.825 209.171 66.825C212.202 66.825 215.11 66.2534 217.893 65.1103C220.726 63.9671 223.013 62.4264 224.752 60.488C222.615 63.9174 220.006 66.6511 216.924 68.6889C213.892 70.7266 210.86 71.7455 207.829 71.7455Z" fill="black"/>
<path d="M40.2078 40.0115C44.4361 58.0363 49.8061 64.4082 66.5802 66.8157C58.0568 75.2693 49.1323 80.7332 33.9907 80.7332C15.8408 80.7332 12.5317 76.3002 1 66.8157C18.2236 62.5752 24.0501 56.7424 27.3725 40.0115L27.8025 40.0686C23.4516 38.5814 21.5025 34.7511 18.8491 27.0218H48.1295C46.8287 35.4472 43.7139 38.7546 39.989 40.0388L40.2078 40.0115Z" fill="black"/>
<path d="M33.5896 40.8362L27.3725 40.0115C24.0501 56.7424 18.2236 62.5752 1 66.8157C12.5317 76.3002 15.8408 80.7332 33.9907 80.7332C49.1323 80.7332 58.0568 75.2693 66.5802 66.8157C49.8061 64.4082 44.4362 58.0363 40.2078 40.0115L33.5896 40.8362ZM33.5896 40.8362C39.8067 40.8362 46.124 40.0115 48.1295 27.0218H18.8491C22.459 37.5373 24.7653 40.8362 33.5896 40.8362ZM27.1719 61.4548C23.4617 68.259 31.0114 76.1589 41.6116 78.6714C50.2094 79.6526 63.1709 70.6301 57.2546 71.0425C51.3383 71.4548 44.2188 60.8363 37.9014 58.2589C31.5841 55.6816 27.1719 61.4548 27.1719 61.4548Z" stroke="black" stroke-width="0.402333"/>
<path d="M40.0717 78.3151C30.3623 75.4714 23.7897 68.2417 27.3072 61.9671C27.3072 61.9671 31.7329 56.3344 38.0696 58.849C44.1988 61.2812 51.0807 71.0533 56.8952 71.3269C57.0921 71.3361 57.2878 71.3345 57.4822 71.3213C63.4166 70.919 50.4154 79.7218 41.7912 78.7645C41.2084 78.6301 40.6348 78.48 40.0717 78.3151Z" fill="#FD3E3E" stroke="black" stroke-width="0.402333"/>
<path d="M46.9665 75.2011C46.0613 74.5976 47.6334 78.24 27.8557 61.6223C29.0114 59.9109 29.8026 59.2619 31.6779 59.1078C35.1883 63.2894 47.1677 72.1836 49.3805 72.1836C51.5933 72.1836 47.8718 75.8046 46.9665 75.2011Z" fill="black" stroke="black" stroke-width="0.201166"/>
<ellipse cx="51.7945" cy="49.5526" rx="1.70991" ry="1.40816" fill="black"/>
<ellipse cx="58.4329" cy="52.3687" rx="1.70991" ry="1.40816" fill="black"/>
<ellipse cx="58.4329" cy="46.736" rx="1.70991" ry="1.40816" fill="black"/>
<ellipse rx="1.70991" ry="1.50875" transform="matrix(-1 0 0 1 16.3892 49.8544)" fill="black"/>
<ellipse rx="1.70991" ry="1.50875" transform="matrix(-1 0 0 1 10.3543 51.866)" fill="black"/>
<ellipse rx="1.70991" ry="1.50875" transform="matrix(-1 0 0 1 9.75078 46.8366)" fill="black"/>
<path d="M17.2935 18.774C17.2935 23.8269 13.7311 27.8265 9.44802 27.8265C5.16492 27.8265 1.60253 23.8269 1.60253 18.774C1.60253 13.7211 5.16492 9.72152 9.44802 9.72152C13.7311 9.72152 17.2935 13.7211 17.2935 18.774Z" fill="white" stroke="black" stroke-width="0.804665"/>
<path d="M67.3849 18.774C67.3849 23.8269 63.8225 27.8265 59.5394 27.8265C55.2564 27.8265 51.694 23.8269 51.694 18.774C51.694 13.7211 55.2564 9.72149 59.5394 9.72149C63.8225 9.72149 67.3849 13.7211 67.3849 18.774Z" fill="white" stroke="black" stroke-width="0.804665"/>
<ellipse cx="8.74491" cy="20.1821" rx="7.54374" ry="8.04665" fill="black"/>
<ellipse cx="59.0365" cy="20.1821" rx="7.54374" ry="8.04665" fill="black"/>
</svg>
