<svg width="28" height="20" viewBox="0 0 28 20" fill="none" xmlns="http://www.w3.org/2000/svg">
<path d="M1 4.36148H27C27.5523 4.36148 28 4.01628 28 3.5904V1.66269C28 1.23681 27.5523 0.891602 27 0.891602H1C0.447688 0.891602 0 1.23681 0 1.66269V3.5904C0 4.01628 0.447688 4.36148 1 4.36148ZM1 12.0723H27C27.5523 12.0723 28 11.7271 28 11.3012V9.37353C28 8.94765 27.5523 8.60245 27 8.60245H1C0.447688 8.60245 0 8.94765 0 9.37353V11.3012C0 11.7271 0.447688 12.0723 1 12.0723ZM1 19.7832H27C27.5523 19.7832 28 19.438 28 19.0121V17.0844C28 16.6585 27.5523 16.3133 27 16.3133H1C0.447688 16.3133 0 16.6585 0 17.0844V19.0121C0 19.438 0.447688 19.7832 1 19.7832Z" fill="#FCCF31"/>
</svg>
